<svg width="194" height="140" viewBox="0 0 194 140" fill="none" xmlns="http://www.w3.org/2000/svg">
<path d="M19.1307 5H152C155.314 5 158 7.68629 158 11V62.5V106.5C158 109.814 155.314 112.5 152 112.5H52.6177C51.962 112.5 51.3107 112.607 50.6897 112.818L13.6122 125.399C9.07507 126.939 4.65257 122.801 5.88681 118.172L8.06537 110L12.9283 91.7595C13.0627 91.2553 13.1307 90.7358 13.1307 90.2139V11C13.1307 7.68629 15.817 5 19.1307 5Z" stroke="white" stroke-width="10"/>
<path d="M57 117.5V121C57 124.314 59.6863 127 63 127H149.44C150.032 127 150.621 127.088 151.188 127.26L182.81 136.895C187.283 138.258 191.526 134.208 190.373 129.676L188.556 122.532L184.296 105.793C184.173 105.309 184.111 104.812 184.111 104.313V32C184.111 28.6863 181.425 26 178.111 26H163" stroke="#717171" stroke-width="5"/>
<path d="M71 35L43 60.5L71 86" stroke="white" stroke-width="8"/>
<path d="M78 86H126.5" stroke="white" stroke-width="8"/>
</svg>
